#
#
#

mtllib Stone.mtl


#
#  메시
#
g  메시


#
#  메시_StoneFloorDetails
#
usemtl  메시_StoneFloorDetails

v 47.468094 0.000000 47.198315
v 43.516052 9.845208 47.198315
v 20.042847 13.723583 47.198315
v 7.859406 13.723583 47.198315
v -26.677795 10.228342 47.198315
v -25.319031 13.723583 43.534073
v -37.942871 13.723583 47.198315
v 1.846252 9.907307 47.198315
v -47.468109 0.000000 47.198315
v 47.468094 13.723583 -18.175459
v 47.468094 9.361645 1.718454
v 47.468094 9.349781 -43.453144
v 47.468094 13.723583 -30.755144
v 47.468094 10.258045 44.437397
v 47.468094 13.723583 27.908667
v 47.468094 13.723583 35.204533
v 21.519897 13.723583 -47.198315
v 44.248596 9.529719 -47.198315
v -41.395355 10.383347 -47.198315
v -28.060974 13.723583 -47.198315
v 47.468094 0.000000 -47.198315
v -47.468109 13.723583 12.572353
v -47.468109 8.926838 -2.679537
v -44.578217 9.056684 47.198315
v -47.468109 11.116703 -42.559212
v -47.468109 0.000000 -47.198315
v -47.468109 13.723583 -21.121134
v -47.468109 13.723583 -32.268505
v -47.468109 13.723583 27.906061
v -47.468109 10.952387 42.459026
v -17.400452 13.723583 47.198315
v -2.097290 13.723583 42.013779
v 42.493301 13.723583 43.811409
v 43.480423 13.723583 -41.289852
v -42.559540 13.723583 1.994348
v 42.300842 13.723583 3.257034
v -41.132263 13.723583 -44.271599
vn 0.520388 0.032039 0.853328
vn 0.280189 0.419963 0.863206
vn 0.028961 0.698416 0.715106
vn -0.099021 0.686353 0.720496
vn -0.011283 0.218114 0.975858
vn -0.019967 0.932438 0.360777
vn -0.125695 0.860144 0.494320
vn -0.045924 0.322764 0.945365
vn -0.879453 0.045770 0.473780
vn 0.580834 0.813273 0.034909
vn 0.961616 0.274342 0.005611
vn 0.918288 0.312561 -0.243006
vn 0.330187 0.942625 -0.049337
vn 0.817017 0.398865 0.416401
vn 0.470806 0.882076 -0.016831
vn 0.639883 0.757998 0.126448
vn 0.047892 0.577900 -0.814701
vn 0.278900 0.345268 -0.896105
vn -0.207299 0.288109 -0.934891
vn -0.051811 0.836146 -0.546055
vn 0.857591 0.078258 -0.508344
vn -0.309776 0.950314 -0.030691
vn -0.949200 0.314052 -0.019752
vn -0.358507 0.264305 0.895330
vn -0.810923 0.432302 -0.394359
vn -0.786306 0.071244 -0.613716
vn -0.720060 0.693216 0.031048
vn -0.441749 0.894468 -0.069177
vn -0.773902 0.630690 0.057502
vn -0.755574 0.533934 0.379503
vn -0.879453 0.045770 0.473780
vn -0.026821 0.862756 0.504908
vn -0.045924 0.322764 0.945365
vn -0.044446 0.963569 0.263743
vn -0.011283 0.218114 0.975858
vn 0.221041 0.903594 0.366960
vn 0.817017 0.398865 0.416401
vn 0.242857 0.943971 -0.223472
vn -0.283269 0.958844 -0.019422
vn 0.273411 0.961875 0.006577
vn -0.185253 0.937427 -0.294807
vn 0.221041 0.903594 0.366960
vn -0.185253 0.937427 -0.294807
vn -0.358507 0.264305 0.895330
vn 0.918288 0.312561 -0.243006
vn 0.047892 0.577900 -0.814701
vn -0.051811 0.836146 -0.546055
vn -0.810923 0.432301 -0.394359
vn -0.755574 0.533934 0.379503
vt 0.808499 0.690534
vt 0.791633 0.732549
vt 0.691459 0.749101
vt 0.639464 0.749101
vt 0.836846 0.980295
vt 0.832243 0.958399
vt 0.888102 0.974750
vt 0.613803 0.732815
vt 0.492075 0.734185
vt 0.403350 0.690534
vt 0.703186 0.815640
vt 0.618287 0.797025
vt 0.811061 0.796974
vt 0.756871 0.815640
vt 0.435980 0.800851
vt 0.424198 0.757073
vt 0.506518 0.815640
vt 0.475382 0.815640
vt 0.532154 0.882180
vt 0.435157 0.864282
vt 0.800651 0.867925
vt 0.743745 0.882180
vt 0.827043 0.757073
vt 0.661227 0.952353
vt 0.596138 0.931882
vt 0.808996 0.893786
vt 0.443999 0.749101
vt 0.415682 0.729184
vt 0.425947 0.941228
vt 0.406149 0.893786
vt 0.517437 0.952353
vt 0.469864 0.952353
vt 0.726664 0.952353
vt 0.788771 0.940527
vt 0.050352 0.484169
vt 0.104226 0.499806
vt 0.009702 0.631938
vt 0.009702 0.566500
vt 0.857703 0.909063
vt 0.890943 0.949304
vt 0.853360 0.933753
vt 0.981139 0.731579
vt 0.989864 0.815920
vt 0.962665 0.798650
vt 0.796313 0.968170
vt 0.138019 0.484169
vt 0.203326 0.506294
vt 0.978175 0.843976
vt 0.905158 0.809724
vt 0.861032 0.799323
vt 0.870278 0.780859
vt 0.848273 0.776656
vt 0.819891 0.808188
vt 0.910037 0.833977
vt 0.890949 0.852586
vt 0.854958 0.820048
vt 0.949421 0.819413
vt 0.921752 0.850926
vt 0.414851 0.763157
vt 0.009702 0.775728
vt 0.030650 0.677081
vt 0.392800 0.671692
vt 0.894834 0.988507
vt 0.935773 0.947531
vt 0.938784 0.977517
vt 0.954711 0.948873
vt 0.700425 0.990357
vt 0.633688 0.976152
vt 0.681001 0.960719
vt 0.414851 0.566489
vt 0.245818 0.484169
vt 0.297812 0.484169
vt 0.393621 0.498623
vt 0.414851 0.535353
vt 0.397834 0.861800
vt 0.036741 0.874525
vt 0.414851 0.816842
vt 0.009702 0.823301
vt 0.505219 0.989849
vt 0.512902 0.961268
vt 0.618447 0.983135
vt 0.818751 0.934996
vt 0.848803 0.677695
vt 0.418790 0.974365
vt 0.304115 0.887015
vt 0.092524 0.887015
vt 0.531666 0.749101
vt 0.908858 0.952764
vt 0.945774 0.888683
vt 0.989057 0.988255
vt 0.782283 0.976630
vt 0.846712 0.844455
vt 0.826567 0.823613
vt 0.421417 0.823613
f 1/1/1 2/2/2 3/3/3
f 1/1/1 3/3/3 4/4/4
f 5/5/5 6/6/6 7/7/7
f 8/8/8 5/9/5 1/1/1
f 5/9/5 9/10/9 1/1/1
f 8/8/8 1/1/1 4/4/4
f 10/11/10 11/12/11 12/13/12
f 10/11/10 12/13/12 13/14/13
f 14/15/14 1/16/1 15/17/15
f 14/15/14 15/17/15 16/18/16
f 17/19/17 18/20/18 19/21/19
f 17/19/17 19/21/19 20/22/20
f 15/17/15 1/16/1 11/12/11
f 21/23/21 12/13/12 11/12/11
f 21/23/21 11/12/11 1/16/1
f 22/24/22 23/25/23 9/26/9
f 5/9/5 7/27/7 24/28/24
f 5/9/5 24/28/24 9/10/9
f 25/29/25 26/30/26 27/31/27
f 25/29/25 27/31/27 28/32/28
f 23/25/23 26/30/26 9/26/9
f 29/33/29 22/24/22 9/26/9
f 29/33/29 9/26/9 30/34/30
f 7/35/7 6/36/6 22/37/22
f 7/35/7 22/37/22 29/38/29
f 30/39/30 9/40/31 24/41/24
f 31/42/32 8/43/33 32/44/34
f 31/45/32 6/6/6 5/5/35
f 6/36/6 31/46/32 22/37/22
f 31/46/32 32/47/34 22/37/22
f 4/48/4 32/44/34 8/43/8
f 1/49/1 14/50/14 2/51/2
f 33/52/36 2/51/2 14/50/14
f 14/50/37 16/53/16 33/52/36
f 12/54/12 34/55/38 13/56/13
f 12/54/12 21/57/21 18/58/18
f 10/59/10 27/60/27 35/61/39
f 10/59/10 35/61/39 36/62/40
f 28/63/28 37/64/41 25/65/25
f 37/64/41 19/66/19 25/65/25
f 23/67/23 22/68/22 35/69/39
f 22/37/22 32/47/34 15/70/15
f 15/70/15 32/47/34 4/71/4
f 15/70/15 4/71/4 3/72/3
f 22/37/22 15/70/15 36/62/40
f 22/37/22 36/62/40 35/61/39
f 15/70/15 3/72/3 33/73/42
f 15/70/15 33/73/36 16/74/16
f 34/75/38 37/76/41 13/77/13
f 37/76/43 28/78/28 13/77/13
f 11/79/11 36/80/40 15/81/15
f 30/39/30 24/41/44 7/82/7
f 33/52/36 3/83/3 2/51/2
f 10/84/10 36/80/40 11/79/11
f 17/85/17 20/86/20 34/75/38
f 20/86/20 37/76/41 34/75/38
f 34/55/38 12/54/45 18/58/18
f 8/8/8 31/87/32 5/9/5
f 34/55/38 18/58/18 17/88/46
f 20/89/47 19/66/19 37/64/43
f 19/66/19 26/90/26 25/65/48
f 13/77/13 28/78/28 27/60/27
f 13/77/13 27/60/27 10/59/10
f 26/30/26 23/25/23 27/31/27
f 27/91/27 23/67/23 35/69/39
f 30/39/49 7/82/7 29/92/29
f 19/21/19 18/20/18 26/93/26
f 18/20/18 21/94/21 26/93/26
